<?xml version="1.0" standalone="no"?>
<!DOCTYPE svg PUBLIC "-//W3C//DTD SVG 20010904//EN"
 "http://www.w3.org/TR/2001/REC-SVG-20010904/DTD/svg10.dtd">
<svg version="1.0" xmlns="http://www.w3.org/2000/svg"
 width="512.000000pt" height="512.000000pt" viewBox="0 0 512.000000 512.000000"
 preserveAspectRatio="xMidYMid meet">

<g transform="translate(0.000000,512.000000) scale(0.100000,-0.100000)"
fill="#000000" stroke="none">
<path d="M3795 5114 c-125 -21 -257 -76 -350 -147 -33 -25 -118 -105 -190
-176 l-130 -131 768 -768 768 -767 147 150 c156 159 208 228 253 334 87 209
76 432 -34 646 -37 73 -65 105 -336 378 -163 165 -323 319 -357 343 -73 52
-167 97 -249 119 -60 16 -234 27 -290 19z"/>
<path d="M1501 3036 l-1193 -1193 -154 -919 c-84 -505 -152 -919 -151 -921 2
-1 416 67 921 151 l918 153 1194 1194 1194 1194 -768 768 -767 767 -1194
-1194z"/>
</g>
</svg>
