<?xml version="1.0" standalone="no"?>
<!DOCTYPE svg PUBLIC "-//W3C//DTD SVG 20010904//EN"
 "http://www.w3.org/TR/2001/REC-SVG-20010904/DTD/svg10.dtd">
<svg version="1.0" xmlns="http://www.w3.org/2000/svg"
 width="512.000000pt" height="512.000000pt" viewBox="0 0 512.000000 512.000000"
 preserveAspectRatio="xMidYMid meet">

<g transform="translate(0.000000,512.000000) scale(0.100000,-0.100000)"
fill="#000000" stroke="none">
<path d="M1730 5109 c-40 -17 -80 -60 -90 -100 -8 -28 -6 -54 6 -105 23 -99
13 -157 -47 -271 -102 -194 -104 -334 -8 -513 73 -135 82 -211 38 -337 -20
-59 -17 -95 10 -127 62 -73 222 -43 335 64 79 74 111 150 111 261 0 82 -2 90
-47 180 -88 178 -88 233 -3 404 60 119 81 201 70 274 -14 104 -95 210 -192
253 -53 24 -147 33 -183 17z m126 -158 c48 -22 80 -59 96 -112 14 -49 -9 -141
-53 -210 -97 -153 -101 -338 -8 -506 63 -116 62 -205 -3 -279 -29 -33 -85 -70
-94 -62 -2 2 2 33 8 69 16 102 -2 188 -71 323 -54 107 -56 113 -56 191 0 79 2
85 57 196 78 154 90 234 61 380 -7 35 5 36 63 10z"/>
<path d="M2462 5104 c-18 -9 -43 -31 -55 -48 -18 -26 -21 -41 -18 -96 2 -36 4
-103 5 -150 1 -83 0 -87 -46 -170 -66 -121 -81 -181 -76 -301 4 -96 5 -100 62
-214 52 -102 60 -125 64 -188 3 -56 -1 -86 -17 -134 -26 -77 -26 -99 -1 -140
24 -41 68 -53 144 -42 116 19 209 85 267 191 33 60 34 67 34 168 l0 105 -50
95 c-49 93 -50 95 -50 186 0 89 1 93 46 180 103 196 106 323 11 449 -72 95
-237 151 -320 109z m145 -155 c29 -14 52 -35 69 -65 35 -59 31 -134 -11 -214
-85 -163 -94 -194 -95 -306 0 -85 19 -155 71 -253 32 -60 39 -85 39 -130 0
-71 -30 -134 -83 -172 -54 -39 -68 -38 -56 3 13 47 11 165 -5 223 -7 28 -35
92 -62 144 -49 93 -49 94 -49 190 0 95 0 96 47 181 66 121 82 183 75 294 -2
50 -8 99 -12 109 -10 24 17 22 72 -4z"/>
<path d="M3215 5107 c-79 -37 -100 -95 -77 -216 15 -76 15 -88 0 -146 -9 -35
-31 -85 -48 -113 -69 -112 -93 -248 -66 -364 9 -37 39 -113 68 -168 50 -96 52
-104 53 -178 0 -55 -7 -95 -23 -141 -22 -62 -22 -64 -5 -100 27 -54 73 -73
147 -61 147 24 259 120 300 260 31 104 16 202 -45 303 -75 122 -74 229 2 374
86 162 98 268 44 379 -30 62 -99 128 -162 156 -59 26 -148 33 -188 15z m130
-156 c48 -22 69 -44 90 -96 24 -57 12 -113 -51 -240 -95 -193 -96 -311 -3
-493 38 -74 49 -106 49 -141 -1 -62 -29 -120 -80 -164 -53 -45 -74 -48 -63 -9
5 15 8 68 7 117 -1 96 -23 171 -71 247 -44 71 -58 119 -58 199 1 73 3 82 58
190 77 152 91 243 61 382 -8 33 4 34 61 8z"/>
<path d="M4348 3597 c-212 -80 -303 -269 -237 -500 16 -58 11 -69 -60 -119
-45 -31 -57 -35 -78 -27 -50 19 -158 28 -220 19 l-63 -8 -67 45 c-203 137
-514 241 -863 289 -152 21 -497 24 -645 5 -398 -50 -767 -180 -1068 -377 -171
-112 -362 -277 -391 -338 -27 -57 5 -106 69 -106 19 0 44 17 88 62 266 265
610 454 1007 553 453 113 973 92 1396 -56 87 -30 290 -125 299 -139 7 -12
-197 -88 -334 -126 -68 -19 -129 -39 -136 -44 -19 -16 -26 -55 -15 -84 15 -41
50 -51 117 -37 103 23 274 81 428 146 175 73 227 83 316 60 114 -29 198 -99
248 -205 22 -46 26 -69 26 -140 0 -74 -4 -93 -31 -150 -25 -54 -49 -82 -130
-155 -54 -50 -125 -115 -157 -146 -44 -44 -67 -58 -98 -63 -113 -18 -203 -111
-253 -259 -5 -15 -15 -16 -93 -11 -71 5 -94 11 -121 31 -96 72 -243 105 -352
80 -36 -8 -74 -18 -85 -21 -17 -6 -25 3 -50 50 -36 71 -108 144 -172 175 -30
15 -74 25 -119 29 l-71 5 13 65 c21 104 84 220 163 298 37 37 92 80 121 96 30
16 65 38 78 49 30 28 29 71 -4 104 -33 33 -64 27 -159 -29 -135 -80 -264 -237
-316 -384 -24 -67 -48 -190 -49 -248 0 -28 -10 -51 -35 -86 -44 -60 -73 -125
-96 -215 -10 -38 -26 -75 -36 -82 -28 -21 -58 -15 -74 13 -20 38 -92 98 -147
124 -26 13 -83 29 -127 38 -135 26 -156 68 -84 173 53 78 100 179 106 229 18
136 -113 266 -250 247 -99 -14 -403 -156 -572 -268 -72 -47 -148 -110 -218
-179 l-107 -107 -59 0 c-32 -1 -68 -6 -81 -13 l-22 -12 7 64 c9 80 48 215 80
278 33 65 32 103 -1 129 -30 23 -55 26 -86 10 -28 -15 -84 -141 -116 -258 -22
-83 -26 -118 -27 -261 -2 -235 -4 -273 -14 -288 -4 -7 -35 -17 -68 -22 -107
-15 -181 -69 -225 -165 -30 -67 -31 -204 -2 -285 l20 -55 -20 -45 c-29 -63
-28 -178 1 -241 47 -104 138 -168 251 -178 l64 -6 32 -80 c73 -181 187 -304
351 -381 147 -68 51 -65 1870 -62 l1640 3 80 27 c213 72 345 203 439 433 l24
60 65 7 c111 11 197 69 244 166 23 47 28 70 28 132 0 89 -25 150 -88 213 -61
61 -115 80 -235 85 -84 4 -102 7 -98 19 35 90 41 134 41 298 0 146 -4 182 -23
254 -29 107 -79 215 -136 294 -52 74 -183 201 -249 242 -38 24 -46 34 -41 50
3 11 13 50 21 86 15 64 17 67 74 102 33 21 70 37 84 37 13 0 45 -13 71 -30 76
-48 135 -63 228 -58 146 8 255 81 319 216 29 60 32 76 32 157 0 76 -5 99 -27
147 -35 75 -104 148 -178 187 -64 34 -65 36 -74 133 -9 91 -41 162 -103 228
-78 85 -141 113 -257 117 -59 2 -104 -2 -128 -10z m200 -153 c84 -35 130 -107
141 -223 13 -121 49 -175 156 -229 158 -80 165 -303 12 -393 -47 -27 -59 -30
-122 -27 -61 3 -78 8 -134 43 -52 32 -74 40 -125 43 -52 3 -69 -1 -118 -25
l-57 -30 -16 45 c-19 57 -64 127 -109 171 l-35 34 39 29 c48 36 90 116 90 174
0 23 -7 61 -16 85 -45 126 6 255 121 305 41 18 128 17 173 -2z m-2933 -1189
c14 -13 25 -34 25 -46 0 -25 -48 -123 -91 -186 -64 -92 -75 -171 -38 -253 38
-83 84 -113 209 -135 70 -12 140 -37 140 -50 0 -3 -22 -16 -48 -29 -27 -13
-63 -39 -82 -56 l-34 -32 -60 17 c-72 20 -193 21 -257 2 l-45 -14 -29 54 c-37
71 -113 139 -178 158 -67 20 -110 19 -177 -5 -30 -11 -62 -19 -70 -19 -8 0
-30 23 -48 52 -18 29 -38 60 -45 69 -10 15 -4 25 38 69 142 146 365 285 625
390 112 45 133 47 165 14z m2649 -159 c123 -88 224 -216 273 -344 70 -186 71
-448 3 -582 -20 -39 -21 -40 -76 -40 -48 0 -55 2 -50 18 51 170 25 332 -68
425 -58 58 -90 71 -196 77 l-95 5 -21 66 c-22 67 -43 107 -78 148 l-21 23 105
98 c58 53 116 109 130 122 14 14 27 26 29 27 2 0 31 -19 65 -43z m-1706 -230
c39 -20 86 -74 116 -129 l25 -48 -44 -60 c-69 -93 -89 -155 -89 -274 0 -86 3
-109 26 -162 l26 -63 -333 0 -332 0 -13 43 c-18 60 -55 131 -90 170 l-29 34
22 20 c45 41 68 47 176 45 88 -2 111 1 148 19 53 26 100 81 114 134 45 169 75
225 143 266 37 22 96 25 134 5z m1276 -84 c24 -22 52 -78 61 -122 11 -57 50
-113 93 -138 33 -18 55 -22 126 -22 80 0 87 -2 119 -30 60 -52 74 -159 36
-275 l-22 -65 -487 0 -488 0 -22 53 c-28 63 -37 174 -20 237 7 27 26 59 51 83
l38 39 99 -7 c139 -10 180 14 227 135 48 123 125 169 189 112z m-3184 -84 c12
-7 41 -43 66 -80 71 -108 144 -131 269 -86 42 15 70 19 90 14 38 -10 100 -74
115 -121 11 -34 10 -37 -24 -75 -41 -45 -79 -116 -95 -178 l-12 -42 -398 0
c-312 0 -408 -3 -444 -14 -26 -8 -49 -10 -52 -5 -13 20 -16 107 -6 145 17 62
48 85 137 100 127 22 167 66 183 201 17 155 73 201 171 141z m2474 -63 c20 -8
36 -18 36 -22 0 -3 -13 -27 -29 -52 -47 -74 -64 -150 -58 -255 2 -50 11 -110
20 -133 l15 -43 -148 0 -148 0 -35 40 c-139 163 -46 426 170 480 48 12 129 5
177 -15z m-1512 -301 c61 -20 130 -82 162 -147 l27 -52 -287 -3 c-158 -1 -289
0 -292 2 -10 11 22 78 59 119 43 49 102 83 170 96 50 10 94 6 161 -15z m3284
-380 c92 -68 97 -185 10 -247 -31 -22 -32 -22 -589 -27 l-559 -5 -19 -24 c-25
-30 -24 -62 2 -95 l20 -26 425 0 c348 0 424 -2 424 -13 0 -8 -14 -42 -31 -76
-44 -88 -133 -180 -218 -225 -133 -70 -22 -66 -1801 -66 -1752 0 -1663 -3
-1788 57 -81 39 -193 153 -232 234 -16 35 -30 70 -30 77 0 9 304 12 1484 12
l1485 0 20 26 c26 33 27 65 2 95 l-19 24 -1620 5 c-1610 5 -1621 5 -1648 25
-36 27 -64 81 -64 123 0 51 37 108 84 132 41 20 50 20 2338 18 l2297 -3 27
-21z"/>
</g>
</svg>
