<?xml version="1.0" standalone="no"?>
<!DOCTYPE svg PUBLIC "-//W3C//DTD SVG 20010904//EN"
 "http://www.w3.org/TR/2001/REC-SVG-20010904/DTD/svg10.dtd">
<svg version="1.0" xmlns="http://www.w3.org/2000/svg"
 width="512.000000pt" height="512.000000pt" viewBox="0 0 512.000000 512.000000"
 preserveAspectRatio="xMidYMid meet">

<g transform="translate(0.000000,512.000000) scale(0.100000,-0.100000)"
fill="#000000" stroke="none">
<path d="M2250 4871 c-87 -27 -164 -92 -208 -174 l-27 -52 -3 -671 -3 -671
-87 -7 c-281 -23 -556 -123 -781 -284 -122 -87 -269 -233 -351 -350 l-65 -92
-47 0 -48 0 0 630 c0 559 2 630 15 630 32 0 132 60 178 107 96 95 141 234 118
359 -42 230 -255 385 -477 347 -279 -48 -433 -346 -309 -599 39 -80 111 -148
200 -190 l75 -36 0 -628 0 -628 -33 -7 c-61 -13 -173 -74 -223 -122 -64 -62
-117 -140 -146 -218 -21 -57 -22 -77 -26 -416 -3 -298 -1 -366 13 -424 30
-131 111 -248 226 -324 93 -62 168 -82 342 -88 l147 -6 55 -77 c198 -284 519
-504 860 -593 182 -47 215 -49 965 -44 775 4 737 1 950 69 307 98 590 305 774
566 l55 79 148 6 c174 6 249 26 342 88 81 54 145 127 186 213 53 112 57 152
53 541 -4 332 -5 353 -26 410 -48 129 -148 241 -266 299 -94 45 -152 56 -305
56 l-127 0 -42 63 c-23 34 -75 101 -116 148 l-75 87 162 4 c152 4 166 6 224
32 73 33 143 103 176 174 22 47 22 51 25 776 2 647 1 735 -14 784 -30 104
-104 186 -202 222 -51 20 -80 20 -1155 19 -606 0 -1113 -4 -1127 -8z m2238
-211 c64 -39 62 -19 62 -782 0 -766 3 -734 -63 -782 -28 -21 -42 -21 -605 -26
-317 -3 -583 -9 -590 -13 -6 -5 -31 -36 -54 -70 -107 -161 -205 -255 -328
-317 -62 -32 -261 -102 -268 -95 -2 2 6 33 17 69 23 74 41 201 41 289 0 63
-19 110 -49 127 -11 5 -84 10 -163 10 -169 0 -206 8 -247 56 l-31 35 0 721 0
720 39 39 39 39 1083 0 c1070 0 1084 0 1117 -20z m-3894 -221 c59 -16 122 -81
143 -145 14 -46 15 -61 4 -110 -21 -94 -119 -174 -212 -174 -111 0 -219 108
-219 220 0 144 142 249 284 209z m1450 -1382 c29 -62 105 -132 173 -158 43
-16 87 -23 169 -27 l112 -4 -5 -42 c-10 -79 -35 -162 -84 -271 -27 -60 -49
-125 -49 -143 0 -44 46 -92 87 -92 33 0 311 75 422 114 202 70 372 203 500
389 l32 47 219 0 219 0 73 -59 c156 -125 281 -278 365 -445 365 -727 3 -1602
-770 -1861 -188 -63 -219 -65 -947 -65 -730 0 -759 2 -950 66 -484 162 -828
579 -901 1093 -15 104 -7 329 15 431 87 404 344 741 706 924 171 87 369 139
545 144 49 1 50 1 69 -41z m-1429 -704 c-28 -69 -68 -200 -87 -286 -32 -146
-32 -456 0 -600 18 -82 59 -218 88 -291 7 -18 3 -19 -80 -13 -146 10 -234 64
-297 179 l-34 63 0 360 0 360 27 55 c60 122 171 189 312 190 71 0 77 -2 71
-17z m4092 -4 c72 -28 144 -94 180 -168 l28 -56 0 -355 0 -355 -33 -67 c-57
-117 -151 -175 -299 -185 -82 -6 -86 -5 -79 13 29 73 69 207 88 291 32 145 32
454 0 600 -19 86 -59 217 -87 286 -6 15 0 17 69 17 52 0 93 -6 133 -21z"/>
<path d="M2563 4418 c-30 -15 -56 -72 -48 -107 3 -16 17 -39 31 -52 24 -23 34
-24 166 -27 156 -4 190 4 213 49 24 45 19 87 -14 120 l-29 29 -149 -1 c-82 0
-158 -5 -170 -11z"/>
<path d="M3293 4418 c-30 -15 -56 -72 -48 -107 3 -16 17 -39 31 -52 l26 -24
426 -3 c308 -2 434 1 455 9 64 27 78 109 28 160 l-29 29 -434 -1 c-284 0 -441
-4 -455 -11z"/>
<path d="M2575 3971 c-37 -16 -60 -51 -60 -93 0 -33 6 -45 33 -69 l32 -29 801
0 801 0 29 29 c31 31 39 83 19 122 -27 50 -12 49 -852 48 -431 0 -792 -4 -803
-8z"/>
<path d="M2573 3515 c-40 -17 -69 -71 -59 -110 4 -15 18 -38 31 -51 l24 -24
441 0 442 0 29 29 c52 53 33 135 -38 162 -14 5 -201 9 -431 9 -327 -1 -413 -4
-439 -15z"/>
<path d="M3872 3515 c-44 -19 -67 -73 -52 -120 19 -58 41 -65 210 -65 l152 0
29 29 c52 53 33 135 -38 162 -39 15 -263 11 -301 -6z"/>
<path d="M1608 2385 c-63 -23 -127 -74 -173 -136 -170 -231 -98 -604 140 -719
71 -35 180 -39 257 -10 150 56 258 236 258 430 0 192 -108 374 -253 428 -67
25 -171 28 -229 7z m182 -207 c18 -13 47 -48 64 -78 29 -51 31 -62 31 -150 0
-88 -2 -99 -31 -150 -78 -138 -211 -135 -281 7 -24 50 -28 70 -28 143 0 73 4
93 28 143 50 101 141 136 217 85z"/>
<path d="M3295 2384 c-95 -34 -192 -138 -236 -253 -27 -70 -36 -213 -20 -293
29 -139 136 -276 248 -318 78 -29 186 -25 258 10 237 115 310 488 140 719 -47
64 -111 113 -176 136 -52 19 -161 18 -214 -1z m187 -209 c23 -15 47 -46 65
-82 24 -50 28 -70 28 -143 0 -73 -4 -93 -28 -143 -70 -142 -206 -145 -282 -7
-27 50 -30 63 -30 150 0 87 3 100 30 150 54 98 139 128 217 75z"/>
<path d="M2199 1131 c-42 -42 -41 -98 3 -141 187 -188 513 -194 701 -14 41 39
47 50 47 85 0 31 -7 47 -29 70 -44 43 -90 40 -156 -11 -76 -58 -118 -74 -205
-74 -87 0 -129 16 -205 74 -66 51 -112 54 -156 11z"/>
</g>
</svg>
