<?xml version="1.0" standalone="no"?>
<!DOCTYPE svg PUBLIC "-//W3C//DTD SVG 20010904//EN"
 "http://www.w3.org/TR/2001/REC-SVG-20010904/DTD/svg10.dtd">
<svg version="1.0" xmlns="http://www.w3.org/2000/svg"
 width="512.000000pt" height="512.000000pt" viewBox="0 0 512.000000 512.000000"
 preserveAspectRatio="xMidYMid meet">

<g transform="translate(0.000000,512.000000) scale(0.100000,-0.100000)"
fill="#000000" stroke="none">
<path d="M201 4194 c-21 -26 -21 -36 -21 -495 0 -292 4 -487 11 -517 19 -91
83 -174 174 -228 17 -10 18 -47 6 -936 -9 -677 -9 -937 -1 -967 23 -87 110
-150 208 -151 86 0 152 42 194 125 21 40 21 47 14 645 -3 333 -9 756 -12 940
l-7 335 54 35 c29 19 68 54 86 78 62 82 63 94 63 634 0 475 -1 489 -20 508
-11 11 -33 20 -50 20 -17 0 -39 -9 -50 -20 -19 -19 -20 -33 -20 -400 l0 -380
-90 0 -90 0 0 374 c0 363 -1 374 -21 400 -25 32 -77 36 -102 8 -15 -17 -17
-59 -17 -400 l0 -382 -95 0 -95 0 0 380 c0 367 -1 381 -20 400 -29 29 -74 26
-99 -6z m629 -948 c0 -77 -52 -145 -132 -172 -26 -8 -53 -25 -59 -36 -8 -15
-8 -241 0 -812 16 -1129 16 -1141 -10 -1167 -28 -28 -85 -23 -111 12 -19 24
-19 48 -7 982 9 698 9 963 1 981 -6 15 -26 29 -49 36 -83 27 -142 101 -143
178 l0 32 255 0 255 0 0 -34z"/>
<path d="M4745 4128 c-214 -230 -356 -502 -426 -815 -21 -91 -23 -130 -26
-557 -3 -252 -2 -469 1 -481 8 -31 47 -45 121 -45 l65 0 0 -561 c0 -375 4
-575 11 -604 6 -24 27 -63 47 -86 107 -124 296 -101 375 46 l22 40 3 1551 2
1551 -21 26 c-15 20 -30 27 -54 27 -29 0 -44 -11 -120 -92z m55 -958 l0 -800
-186 0 -186 0 5 418 c4 384 6 424 26 507 45 188 103 335 190 478 48 78 136
197 146 197 3 0 5 -360 5 -800z m0 -1504 l0 -564 -26 -31 c-37 -44 -91 -44
-128 0 l-26 31 0 564 0 564 90 0 90 0 0 -564z"/>
<path d="M2500 3998 c-650 -41 -1195 -534 -1316 -1189 -26 -139 -24 -372 4
-515 113 -576 535 -1011 1111 -1146 122 -28 411 -36 536 -14 408 71 748 289
974 626 380 567 306 1326 -176 1812 -304 307 -695 454 -1133 426z m405 -167
c231 -55 450 -176 616 -341 632 -626 471 -1683 -318 -2088 -194 -99 -373 -143
-592 -143 -351 0 -653 121 -905 362 -146 139 -261 316 -330 507 -95 264 -95
600 0 864 174 484 621 830 1119 866 135 9 301 -2 410 -27z"/>
<path d="M2500 3470 c-250 -28 -506 -184 -649 -393 -49 -72 -107 -201 -132
-297 -29 -108 -31 -305 -5 -420 39 -172 117 -310 251 -445 115 -116 215 -178
360 -224 535 -172 1096 170 1186 723 19 120 7 302 -26 406 -82 255 -247 449
-476 563 -145 71 -345 105 -509 87z m290 -156 c86 -21 231 -92 302 -148 319
-254 383 -725 144 -1060 -197 -276 -557 -389 -884 -277 -109 38 -180 81 -270
166 -169 158 -246 336 -246 565 0 226 76 404 240 561 191 182 455 254 714 193z"/>
</g>
</svg>
