<?xml version="1.0" standalone="no"?>
<!DOCTYPE svg PUBLIC "-//W3C//DTD SVG 20010904//EN"
 "http://www.w3.org/TR/2001/REC-SVG-20010904/DTD/svg10.dtd">
<svg version="1.0" xmlns="http://www.w3.org/2000/svg"
 width="512.000000pt" height="512.000000pt" viewBox="0 0 512.000000 512.000000"
 preserveAspectRatio="xMidYMid meet">

<g transform="translate(0.000000,512.000000) scale(0.100000,-0.100000)"
fill="#000000" stroke="none">
<path d="M4100 5109 c-14 -5 -102 -86 -196 -180 l-170 -170 -94 47 c-319 158
-660 241 -1040 251 -430 11 -783 -63 -1165 -246 -257 -123 -453 -261 -664
-466 -417 -406 -656 -874 -748 -1465 -25 -163 -25 -538 1 -705 111 -730 505
-1351 1116 -1757 434 -288 950 -433 1475 -415 537 20 1017 189 1442 508 122
92 340 303 437 423 285 351 471 775 543 1236 25 164 25 557 -1 725 -39 256
-124 531 -230 745 l-47 93 175 176 c186 187 198 206 181 281 -10 45 -60 98
-103 109 -21 6 -126 22 -235 37 l-198 27 109 111 c61 61 115 121 121 133 31
61 1 155 -61 193 -37 22 -106 27 -141 9 -12 -6 -72 -60 -133 -121 l-111 -109
-31 223 c-33 233 -38 249 -94 291 -30 23 -102 31 -138 16z m-1215 -378 c138
-24 243 -50 370 -93 100 -34 245 -97 245 -107 0 -4 -27 -33 -61 -66 -33 -33
-67 -72 -75 -87 -19 -36 -17 -97 6 -253 29 -193 39 -181 -95 -114 -607 304
-1319 214 -1835 -233 -473 -410 -675 -1076 -510 -1678 148 -538 553 -965 1079
-1140 289 -96 572 -112 869 -50 320 67 645 251 863 488 477 519 583 1253 270
1877 -67 134 -80 124 119 95 225 -33 236 -31 335 69 33 34 62 61 66 61 3 0 20
-30 37 -67 147 -322 217 -739 183 -1093 -75 -788 -542 -1466 -1246 -1811 -706
-345 -1546 -290 -2200 144 -935 620 -1266 1828 -776 2832 336 689 1010 1161
1776 1244 137 15 439 5 580 -18z m1196 -312 c33 -228 43 -260 97 -291 18 -11
106 -28 242 -48 117 -16 214 -31 216 -33 2 -2 -84 -90 -190 -196 l-193 -193
-258 36 c-142 20 -260 38 -262 39 -1 2 -19 120 -39 262 l-36 258 193 193 c106
106 194 192 196 190 2 -1 17 -99 34 -217z m-1310 -554 c176 -30 375 -113 526
-217 40 -28 73 -53 73 -57 0 -3 -90 -96 -199 -205 l-199 -199 -94 46 c-130 64
-207 81 -353 80 -173 -1 -297 -39 -439 -136 -184 -125 -315 -345 -334 -562
-15 -170 10 -300 86 -450 37 -73 64 -108 142 -186 85 -86 107 -102 200 -147
128 -61 220 -83 355 -83 213 0 401 78 550 226 98 98 161 205 199 337 59 205
36 414 -66 598 l-33 60 200 200 c110 110 203 200 206 200 13 0 108 -148 153
-239 100 -197 140 -374 139 -606 -1 -232 -37 -383 -143 -600 -189 -384 -564
-663 -984 -730 -437 -70 -871 69 -1181 380 -260 259 -396 587 -396 954 0 375
131 692 396 956 236 236 494 357 845 399 62 7 263 -3 351 -19z m-105 -870 c91
-28 95 -18 -93 -207 -94 -95 -176 -186 -182 -201 -46 -122 74 -242 196 -196
15 6 106 88 201 182 138 138 175 169 182 157 44 -67 53 -247 19 -349 -46 -135
-157 -252 -286 -301 -80 -31 -208 -38 -292 -16 -320 82 -464 460 -281 734 63
94 138 151 252 192 67 24 212 27 284 5z"/>
</g>
</svg>
