<?xml version="1.0" standalone="no"?>
<!DOCTYPE svg PUBLIC "-//W3C//DTD SVG 20010904//EN"
 "http://www.w3.org/TR/2001/REC-SVG-20010904/DTD/svg10.dtd">
<svg version="1.0" xmlns="http://www.w3.org/2000/svg"
 width="512.000000pt" height="512.000000pt" viewBox="0 0 512.000000 512.000000"
 preserveAspectRatio="xMidYMid meet">

<g transform="translate(0.000000,512.000000) scale(0.100000,-0.100000)"
fill="#000000" stroke="none">
<path d="M640 5027 c-49 -16 -133 -102 -148 -153 -7 -25 -12 -106 -12 -208 l0
-166 -80 -160 -80 -160 0 -1620 0 -1620 80 -160 80 -160 0 -166 c0 -203 7
-232 75 -299 81 -82 170 -96 270 -46 57 29 59 29 84 12 71 -49 153 -53 236
-12 57 29 59 29 84 12 71 -49 153 -53 236 -12 57 29 59 29 84 12 71 -49 153
-53 236 -12 57 29 59 29 84 12 71 -49 153 -53 236 -12 57 29 59 29 84 12 95
-66 210 -53 296 34 68 67 75 96 75 299 l0 166 80 160 c51 102 80 172 80 192 0
30 86 119 1040 1073 981 981 1040 1042 1040 1075 0 33 -32 67 -503 537 -470
471 -504 503 -537 503 -32 0 -67 -33 -537 -502 l-503 -503 0 513 0 512 -80
160 -80 160 0 166 c0 203 -7 232 -75 299 -87 87 -201 100 -297 33 -28 -19 -28
-19 -55 0 -80 55 -186 55 -265 0 -28 -19 -28 -19 -55 0 -16 10 -43 24 -62 30
-66 23 -144 11 -203 -30 -28 -19 -28 -19 -55 0 -16 10 -43 24 -62 30 -66 23
-144 11 -203 -30 -28 -19 -28 -19 -55 0 -16 10 -43 24 -62 30 -66 23 -144 11
-203 -30 -28 -19 -28 -19 -55 0 -60 41 -140 52 -213 29z m135 -172 c24 -23 25
-29 25 -160 l0 -135 -80 0 -80 0 0 135 c0 131 1 137 25 160 15 16 36 25 55 25
19 0 40 -9 55 -25z m320 0 c24 -23 25 -29 25 -160 l0 -135 -80 0 -80 0 0 135
c0 131 1 137 25 160 15 16 36 25 55 25 19 0 40 -9 55 -25z m320 0 c24 -23 25
-29 25 -160 l0 -135 -80 0 -80 0 0 135 c0 131 1 137 25 160 15 16 36 25 55 25
19 0 40 -9 55 -25z m320 0 c24 -23 25 -29 25 -160 l0 -135 -80 0 -80 0 0 135
c0 131 1 137 25 160 15 16 36 25 55 25 19 0 40 -9 55 -25z m320 0 c24 -23 25
-29 25 -160 l0 -135 -80 0 -80 0 0 135 c0 131 1 137 25 160 15 16 36 25 55 25
19 0 40 -9 55 -25z m320 0 c24 -23 25 -29 25 -160 l0 -135 -80 0 -80 0 0 135
c0 131 1 137 25 160 15 16 36 25 55 25 19 0 40 -9 55 -25z m95 -535 l40 -80
-110 0 c-104 0 -112 -1 -135 -25 -33 -32 -33 -78 0 -110 23 -24 29 -25 160
-25 l135 0 0 -480 0 -480 -182 0 -181 0 -33 39 c-18 21 -66 63 -106 94 -352
269 -832 243 -1152 -64 l-71 -69 -177 0 -178 0 0 480 0 480 775 0 776 0 24 25
c16 15 25 36 25 55 0 19 -9 40 -25 55 l-24 25 -751 0 -750 0 40 80 40 80 910
0 910 0 40 -80z m1355 -420 l60 -60 -103 -103 -102 -102 -62 63 -63 62 100
100 c55 55 102 100 105 100 3 0 32 -27 65 -60z m240 -240 l60 -60 -103 -103
-102 -102 -62 63 -63 62 100 100 c55 55 102 100 105 100 3 0 32 -27 65 -60z
m-200 -440 l420 -420 -783 -783 -782 -782 0 845 0 845 357 357 c197 197 360
358 363 358 3 0 194 -189 425 -420z m440 200 l60 -60 -103 -103 -102 -102 -62
63 -63 62 100 100 c55 55 102 100 105 100 3 0 32 -27 65 -60z m-2653 -154
c153 -29 287 -104 391 -216 80 -87 131 -174 163 -280 38 -124 85 -158 149
-108 26 20 27 25 22 78 -2 31 -19 91 -36 134 -17 43 -31 79 -31 82 0 2 56 4
125 4 l125 0 0 -400 0 -400 -126 0 c-116 0 -126 1 -119 18 39 96 57 155 69
224 16 89 11 117 -26 142 -53 38 -113 3 -123 -72 -10 -77 -44 -182 -83 -257
-50 -96 -191 -237 -287 -287 -126 -65 -202 -83 -350 -82 -112 1 -141 4 -210
27 -114 38 -198 90 -290 182 -91 91 -144 175 -182 290 -23 71 -26 96 -26 215
0 119 3 144 26 215 15 44 43 109 64 145 47 80 178 213 256 259 152 89 328 120
499 87z m2893 -86 l60 -60 -103 -103 -102 -102 -62 63 -63 62 100 100 c55 55
102 100 105 100 3 0 32 -27 65 -60z m-3815 -229 c0 -5 -11 -33 -24 -62 -45
-104 -60 -184 -60 -329 0 -145 15 -225 60 -329 13 -29 24 -57 24 -62 0 -5 -56
-9 -125 -9 l-125 0 0 400 0 400 125 0 c69 0 125 -4 125 -9z m176 -1020 c349
-335 886 -333 1232 4 l66 65 178 0 178 0 0 -480 0 -480 -95 0 c-88 0 -98 -2
-120 -25 -33 -32 -33 -78 0 -110 21 -22 33 -25 95 -25 l70 0 -40 -80 -40 -80
-910 0 -910 0 -40 80 -40 80 790 0 791 0 24 25 c33 32 33 78 0 110 l-24 25
-816 0 -815 0 0 480 0 480 178 0 177 0 71 -69z m-106 -1506 c0 -131 -1 -137
-25 -160 -32 -33 -78 -33 -110 0 -24 23 -25 29 -25 160 l0 135 80 0 80 0 0
-135z m320 0 c0 -131 -1 -137 -25 -160 -32 -33 -78 -33 -110 0 -24 23 -25 29
-25 160 l0 135 80 0 80 0 0 -135z m320 0 c0 -131 -1 -137 -25 -160 -32 -33
-78 -33 -110 0 -24 23 -25 29 -25 160 l0 135 80 0 80 0 0 -135z m320 0 c0
-131 -1 -137 -25 -160 -32 -33 -78 -33 -110 0 -24 23 -25 29 -25 160 l0 135
80 0 80 0 0 -135z m320 0 c0 -131 -1 -137 -25 -160 -32 -33 -78 -33 -110 0
-24 23 -25 29 -25 160 l0 135 80 0 80 0 0 -135z m320 0 c0 -131 -1 -137 -25
-160 -32 -33 -78 -33 -110 0 -24 23 -25 29 -25 160 l0 135 80 0 80 0 0 -135z"/>
<path d="M3023 2977 c-200 -199 -223 -226 -223 -255 0 -44 38 -82 81 -82 29 0
55 22 234 200 l201 200 44 0 c45 0 47 -2 183 -138 135 -135 137 -138 137 -182
l0 -45 -400 -400 c-363 -364 -400 -404 -400 -433 0 -44 38 -82 82 -82 30 0 70
37 455 423 l423 422 0 115 0 114 -183 183 -183 183 -114 0 -115 0 -222 -223z"/>
<path d="M3023 2497 c-200 -199 -223 -226 -223 -255 0 -44 38 -82 82 -82 29 0
56 23 255 223 200 199 223 226 223 255 0 22 -8 41 -25 57 -16 17 -35 25 -57
25 -29 0 -56 -23 -255 -223z"/>
</g>
</svg>
