<?xml version="1.0" standalone="no"?>
<!DOCTYPE svg PUBLIC "-//W3C//DTD SVG 20010904//EN"
 "http://www.w3.org/TR/2001/REC-SVG-20010904/DTD/svg10.dtd">
<svg version="1.0" xmlns="http://www.w3.org/2000/svg"
 width="512.000000pt" height="512.000000pt" viewBox="0 0 512.000000 512.000000"
 preserveAspectRatio="xMidYMid meet">

<g transform="translate(0.000000,512.000000) scale(0.100000,-0.100000)"
fill="#000000" stroke="none">
<path d="M2227 4252 c-27 -29 -20 -59 32 -146 98 -162 104 -208 39 -307 -121
-188 -120 -268 7 -476 26 -43 55 -84 63 -90 22 -18 57 -16 76 3 25 25 19 65
-20 122 -58 86 -94 172 -94 222 0 37 9 59 51 125 29 44 58 94 65 112 20 46 17
134 -5 198 -21 58 -99 195 -134 233 -25 27 -58 28 -80 4z"/>
<path d="M1867 4002 c-26 -29 -20 -59 28 -142 66 -113 67 -124 9 -217 -47 -74
-49 -81 -49 -149 0 -60 5 -80 33 -135 56 -109 84 -144 119 -147 23 -2 35 3 47
20 23 33 21 44 -34 138 -64 108 -64 130 -6 224 55 87 65 136 41 208 -18 56
-74 158 -108 196 -25 27 -58 28 -80 4z"/>
<path d="M2620 4000 c-11 -11 -20 -27 -20 -35 0 -8 23 -54 50 -102 62 -109 64
-134 11 -218 -77 -121 -77 -189 0 -321 66 -114 104 -139 142 -96 26 28 21 57
-23 130 -22 37 -46 84 -52 106 -13 42 -17 32 56 150 31 52 36 68 36 122 0 54
-6 74 -40 140 -73 142 -112 172 -160 124z"/>
<path d="M4263 3639 c-23 -7 -124 -102 -356 -336 l-323 -326 -150 21 c-606 87
-1283 100 -1854 37 -502 -56 -821 -156 -907 -284 -20 -29 -23 -47 -23 -125 0
-117 23 -282 54 -405 129 -498 470 -875 951 -1050 l80 -29 5 -83 c8 -112 41
-171 113 -198 37 -14 1038 -15 1086 -1 76 21 112 82 120 199 l6 83 79 29 c173
63 334 156 477 275 308 257 506 680 526 1129 6 125 5 134 -17 173 -26 46 -82
90 -159 124 l-52 23 259 247 c150 143 266 261 276 281 62 133 -48 257 -191
216z m85 -140 c3 -22 -52 -79 -415 -426 -230 -219 -438 -418 -462 -441 -46
-43 -47 -50 -26 -133 l7 -26 -124 -16 c-172 -23 -358 -40 -364 -34 -3 3 14 27
38 53 91 99 215 152 327 139 l57 -6 364 368 c201 202 406 410 456 461 72 74
97 93 115 90 17 -2 25 -10 27 -29z m-1708 -549 c340 -18 804 -62 822 -79 4 -4
-19 -36 -52 -73 -58 -64 -60 -66 -102 -61 -57 6 -164 -19 -240 -58 -76 -38
-166 -123 -220 -205 l-40 -62 -136 -7 c-160 -9 -645 0 -847 15 -441 33 -829
109 -988 192 -101 54 -85 102 51 158 319 130 1124 212 1752 180z m1235 -170
c227 -78 198 -151 -93 -234 -64 -19 -138 -37 -164 -41 -44 -7 -47 -6 -53 18
-6 22 9 40 122 151 70 69 128 126 129 126 0 0 27 -9 59 -20z m-3022 -300 c178
-80 520 -144 972 -182 200 -17 942 -16 1144 0 449 37 777 97 955 173 39 17 77
33 85 36 12 5 13 -4 8 -55 -36 -342 -212 -689 -459 -902 -293 -254 -679 -380
-1158 -380 -827 0 -1407 398 -1580 1085 -27 103 -49 255 -38 255 3 0 35 -13
71 -30z m1154 -1402 c162 -29 591 -32 753 -4 58 9 122 20 143 23 l37 6 0 -44
c0 -25 -7 -55 -16 -67 l-15 -22 -506 0 c-577 0 -543 -5 -543 82 0 34 4 48 14
48 8 0 67 -10 133 -22z"/>
<path d="M1996 2859 c-14 -11 -26 -28 -26 -38 0 -27 27 -58 58 -64 16 -3 34
-16 42 -31 7 -14 27 -30 45 -36 17 -6 41 -24 54 -40 26 -35 62 -39 91 -10 27
27 25 48 -9 102 -20 32 -38 48 -59 53 -16 3 -35 17 -42 31 -9 16 -30 29 -64
39 -62 19 -58 19 -90 -6z"/>
<path d="M1751 2797 c-30 -18 -58 -39 -64 -48 -15 -24 0 -68 29 -81 22 -10 33
-8 71 12 72 38 93 58 93 90 0 30 -31 60 -60 60 -8 -1 -39 -15 -69 -33z"/>
<path d="M2950 2790 c-11 -11 -20 -29 -20 -40 0 -11 9 -29 20 -40 11 -11 29
-20 40 -20 24 0 60 34 60 55 0 9 -11 27 -25 40 -29 30 -49 31 -75 5z"/>
<path d="M1500 2780 c-19 -5 -45 -21 -57 -36 -12 -15 -36 -32 -53 -38 -41 -14
-86 -92 -76 -131 13 -52 91 -52 115 1 6 14 19 24 32 24 12 0 36 16 53 35 18
19 40 35 49 35 23 0 57 36 57 60 0 27 -35 60 -62 59 -13 -1 -39 -5 -58 -9z"/>
<path d="M2697 2766 c-42 -11 -76 -37 -77 -58 0 -3 -13 -9 -29 -13 -32 -7 -51
-25 -75 -72 -21 -42 -20 -66 2 -86 29 -27 68 -21 91 12 12 16 36 35 55 41 18
6 39 21 46 35 7 13 26 27 41 30 29 7 59 38 59 63 0 14 -44 62 -57 61 -4 0 -30
-6 -56 -13z"/>
<path d="M1063 2696 c-24 -21 -26 -27 -18 -52 11 -31 106 -94 142 -94 48 0 72
70 36 102 -19 17 -113 68 -125 68 -4 0 -19 -11 -35 -24z"/>
<path d="M2395 2604 c-5 -1 -35 -10 -66 -18 -68 -19 -90 -52 -64 -93 23 -35
39 -38 111 -18 80 22 107 52 83 93 -14 24 -44 42 -64 36z"/>
<path d="M1850 2570 c-27 -27 -25 -46 5 -76 27 -27 59 -26 83 4 44 57 -37 123
-88 72z"/>
</g>
</svg>
