<?xml version="1.0" standalone="no"?>
<!DOCTYPE svg PUBLIC "-//W3C//DTD SVG 20010904//EN"
 "http://www.w3.org/TR/2001/REC-SVG-20010904/DTD/svg10.dtd">
<svg version="1.0" xmlns="http://www.w3.org/2000/svg"
 width="512.000000pt" height="512.000000pt" viewBox="0 0 512.000000 512.000000"
 preserveAspectRatio="xMidYMid meet">

<g transform="translate(0.000000,512.000000) scale(0.100000,-0.100000)"
fill="#000000" stroke="none">
<path d="M2321 5110 c-313 -31 -610 -116 -900 -261 -261 -129 -470 -281 -678
-491 -209 -211 -346 -404 -478 -673 -126 -255 -197 -484 -242 -775 -24 -161
-24 -539 0 -700 45 -291 116 -520 241 -775 134 -272 283 -480 498 -692 211
-209 404 -346 673 -478 255 -126 484 -197 775 -242 161 -24 539 -24 700 0 281
44 515 115 756 231 269 130 461 264 673 471 231 226 378 427 517 710 125 255
196 484 241 775 24 161 24 539 0 700 -45 291 -116 520 -241 775 -134 272 -283
480 -498 692 -211 209 -404 346 -673 478 -252 124 -486 197 -765 240 -126 19
-468 27 -599 15z m339 -1306 c49 -21 108 -80 134 -134 20 -43 21 -61 24 -457
l3 -413 437 0 c418 0 439 -1 482 -21 210 -95 212 -377 5 -475 l-50 -24 -437 0
-438 0 0 -430 c0 -281 -4 -447 -11 -482 -28 -127 -126 -207 -254 -208 -75 0
-147 32 -194 85 -68 77 -66 62 -69 573 l-3 462 -427 0 c-408 0 -429 1 -472 21
-55 25 -105 71 -133 124 -30 56 -30 174 0 230 28 53 78 99 133 124 43 20 64
21 473 21 l427 0 0 388 c0 420 4 459 53 529 68 98 202 134 317 87z"/>
</g>
</svg>
