<?xml version="1.0" standalone="no"?>
<!DOCTYPE svg PUBLIC "-//W3C//DTD SVG 20010904//EN"
 "http://www.w3.org/TR/2001/REC-SVG-20010904/DTD/svg10.dtd">
<svg version="1.0" xmlns="http://www.w3.org/2000/svg"
 width="512.000000pt" height="512.000000pt" viewBox="0 0 512.000000 512.000000"
 preserveAspectRatio="xMidYMid meet">

<g transform="translate(0.000000,512.000000) scale(0.100000,-0.100000)"
fill="#000000" stroke="none">
<path d="M1815 4427 c-517 -251 -542 -264 -601 -322 -37 -37 -71 -83 -88 -118
-16 -35 -147 -518 -327 -1210 -268 -1027 -300 -1159 -297 -1214 7 -108 7 -108
524 -457 484 -328 618 -406 840 -492 246 -95 432 -128 719 -128 248 0 463 37
679 115 l84 30 114 -44 c124 -50 285 -97 429 -128 123 -26 379 -37 486 -19
108 17 199 47 223 72 29 31 26 83 -6 114 -29 30 -56 29 -164 -2 -53 -15 -97
-19 -235 -19 -145 1 -188 5 -295 28 -134 28 -340 94 -457 145 -39 18 -80 32
-91 32 -11 0 -61 -16 -110 -35 -211 -81 -418 -117 -672 -118 -262 0 -412 28
-648 119 -235 91 -289 124 -1009 611 -214 145 -243 167 -243 190 0 53 591
2306 616 2350 13 23 40 55 59 71 29 23 961 483 1002 494 12 3 366 -480 361
-493 -2 -4 -92 -98 -201 -208 l-197 -202 -68 54 c-116 92 -154 117 -182 117
-26 0 -226 -56 -355 -99 -33 -11 -68 -30 -77 -42 -25 -29 -22 -73 5 -104 24
-27 52 -33 105 -21 l32 8 0 -661 0 -660 -44 -88 c-24 -48 -46 -100 -50 -116
-15 -63 54 -122 113 -97 24 9 41 34 86 128 51 104 67 125 149 207 158 157 279
200 541 192 151 -5 220 -19 310 -64 70 -36 158 -108 208 -171 67 -84 90 -125
134 -232 42 -104 55 -120 103 -120 39 0 74 24 85 60 13 40 -50 194 -130 317
l-54 82 62 57 c131 121 290 215 427 251 87 23 253 23 340 0 119 -32 237 -96
358 -194 65 -52 109 -57 147 -18 31 30 32 73 3 110 -34 43 -165 136 -264 188
-372 191 -774 117 -1120 -206 l-73 -68 -43 29 c-70 48 -182 100 -265 124 -69
20 -100 23 -273 23 -177 0 -202 -2 -270 -23 -96 -31 -193 -80 -258 -131 l-52
-41 0 589 0 589 50 12 c27 6 55 8 62 4 7 -5 64 -48 126 -96 63 -48 122 -88
133 -88 42 0 82 36 337 298 236 244 262 274 262 304 0 27 -41 90 -231 353
-126 176 -237 326 -246 333 -9 6 -31 12 -47 12 -20 0 -231 -97 -571 -263z"/>
<path d="M1369 1615 c-35 -19 -53 -63 -40 -99 57 -149 328 -397 546 -501 252
-119 568 -163 885 -121 92 12 107 17 127 41 30 34 29 77 -1 111 l-23 28 -145
-14 c-465 -42 -796 55 -1066 314 -46 44 -106 114 -134 155 -66 100 -94 116
-149 86z"/>
<path d="M3846 977 c-35 -35 -35 -85 -1 -120 34 -33 159 -67 282 -76 118 -8
283 4 322 23 34 18 54 66 42 99 -19 49 -31 52 -240 52 -158 0 -207 4 -251 18
-101 32 -125 33 -154 4z"/>
</g>
</svg>
