<?xml version="1.0" standalone="no"?>
<!DOCTYPE svg PUBLIC "-//W3C//DTD SVG 20010904//EN"
 "http://www.w3.org/TR/2001/REC-SVG-20010904/DTD/svg10.dtd">
<svg version="1.0" xmlns="http://www.w3.org/2000/svg"
 width="512.000000pt" height="512.000000pt" viewBox="0 0 512.000000 512.000000"
 preserveAspectRatio="xMidYMid meet">
<metadata>
Created by potrace 1.16, written by Peter Selinger 2001-2019
</metadata>
<g transform="translate(0.000000,512.000000) scale(0.100000,-0.100000)"
fill="#000000" stroke="none">
<path d="M2115 4774 c-905 -122 -1646 -775 -1870 -1647 -54 -213 -69 -334 -69
-567 0 -233 15 -354 69 -567 162 -632 612 -1174 1207 -1452 312 -146 607 -211
962 -211 752 0 1443 374 1859 1005 85 130 117 197 117 247 0 99 -89 165 -187
139 -48 -13 -77 -44 -133 -141 -102 -177 -281 -385 -445 -520 -344 -281 -771
-432 -1220 -432 -504 1 -967 186 -1328 532 -186 178 -294 324 -407 552 -322
650 -250 1421 189 2008 71 96 235 265 330 342 318 256 683 399 1091 427 905
63 1751 -546 1990 -1431 l28 -107 -74 56 c-90 67 -136 77 -203 44 -31 -16 -48
-34 -62 -64 -46 -103 -24 -136 217 -327 108 -85 213 -165 233 -177 44 -28 104
-30 149 -5 42 22 369 434 384 484 29 96 -40 188 -142 188 -59 0 -91 -20 -151
-96 l-53 -66 -26 104 c-83 327 -244 643 -458 898 -360 430 -875 714 -1420 784
-150 19 -436 20 -577 0z"/>
<path d="M2225 3964 c-476 -70 -872 -351 -1083 -770 -53 -105 -97 -233 -124
-357 -31 -146 -31 -408 0 -554 64 -296 208 -556 419 -753 183 -171 378 -276
633 -342 153 -40 387 -50 552 -24 595 94 1066 553 1175 1146 23 129 23 371 0
500 -53 285 -188 541 -397 750 -195 196 -424 320 -710 386 -63 15 -399 28
-465 18z m252 -694 c57 -34 58 -40 63 -355 l5 -290 165 -127 c207 -160 220
-174 220 -236 0 -59 -26 -103 -73 -125 -42 -20 -83 -22 -117 -4 -42 22 -417
316 -444 348 l-26 31 0 339 c0 287 2 345 15 370 34 64 128 89 192 49z"/>
</g>
</svg>
