<?xml version="1.0" standalone="no"?>
<!DOCTYPE svg PUBLIC "-//W3C//DTD SVG 20010904//EN"
 "http://www.w3.org/TR/2001/REC-SVG-20010904/DTD/svg10.dtd">
<svg version="1.0" xmlns="http://www.w3.org/2000/svg"
 width="512.000000pt" height="512.000000pt" viewBox="0 0 512.000000 512.000000"
 preserveAspectRatio="xMidYMid meet">

<g transform="translate(0.000000,512.000000) scale(0.100000,-0.100000)"
fill="#000000" stroke="none">
<path d="M2385 4784 c-634 -113 -1015 -759 -807 -1364 52 -150 142 -290 259
-403 87 -85 142 -124 252 -181 399 -205 881 -131 1200 185 325 324 403 806
195 1210 -58 112 -97 167 -185 257 -238 243 -583 355 -914 296z m330 -159
c433 -76 747 -472 722 -910 -23 -393 -284 -708 -673 -811 -104 -28 -312 -26
-421 4 -350 94 -602 376 -654 732 -63 435 223 862 651 970 132 33 243 38 375
15z"/>
<path d="M1815 2469 c-146 -19 -331 -76 -471 -147 -264 -133 -517 -394 -644
-664 -96 -205 -134 -376 -134 -598 0 -139 3 -163 26 -232 40 -119 92 -204 182
-294 90 -89 174 -142 294 -183 l77 -26 963 -3 962 -3 25 25 c33 33 33 79 0
111 l-24 25 -919 0 c-604 0 -939 4 -978 11 -160 28 -321 152 -393 302 -50 104
-66 190 -58 322 32 516 368 960 857 1133 194 68 177 67 985 67 l730 0 95 -24
c142 -35 151 -36 183 -11 37 30 38 90 2 119 -30 22 -161 55 -285 71 -103 12
-1373 12 -1475 -1z"/>
<path d="M3798 2080 c-385 -61 -675 -331 -753 -701 -19 -90 -19 -268 0 -358
71 -336 327 -601 662 -683 112 -27 295 -29 397 -4 330 79 580 321 668 645 30
109 30 333 0 442 -87 318 -330 558 -648 639 -88 23 -247 32 -326 20z m290
-175 c39 -9 107 -35 151 -58 179 -92 304 -240 368 -432 22 -68 26 -98 27 -205
1 -91 -4 -143 -17 -190 -70 -258 -279 -465 -532 -526 -103 -25 -260 -23 -358
4 -263 74 -464 283 -521 539 -21 93 -21 248 0 332 36 147 131 299 248 393 181
146 402 196 634 143z"/>
<path d="M3865 1655 c-25 -24 -25 -27 -25 -200 l0 -175 -175 0 c-173 0 -176 0
-200 -25 -16 -15 -25 -36 -25 -55 0 -19 9 -40 25 -55 24 -25 27 -25 200 -25
l175 0 0 -175 c0 -173 0 -176 25 -200 15 -16 36 -25 55 -25 19 0 40 9 55 25
25 24 25 27 25 200 l0 175 175 0 c173 0 176 0 200 25 33 32 33 78 0 110 -24
25 -27 25 -200 25 l-175 0 0 175 c0 173 0 176 -25 200 -15 16 -36 25 -55 25
-19 0 -40 -9 -55 -25z"/>
</g>
</svg>
